<?xml version="1.0"?><svg width="640" height="480" xmlns="http://www.w3.org/2000/svg">

 <metadata id="metadata13950">image/svg+xml</metadata>
 <g>
  <title>Layer 1</title>
  <g id="svg_2">
   <path transform="rotate(-90, 360.441, 239.172)" fill="#99ca3c" fill-rule="evenodd" stroke="black" stroke-width="0" id="path13953" d="m227.346466,248.030197c-14.173233,0 -14.173233,-17.716522 0,-17.716522l162.992126,3.543289c10.629913,0 10.629913,-17.716522 24.803131,-17.716522l85.039398,1.771652c5.314941,0 5.314941,5.314957 0,5.314957l-70.86615,0c-7.086639,0 -7.086639,7.086624 0,7.086624l70.86615,0c5.314941,0 5.314941,5.314957 0,5.314941l-76.181122,0.000015c-7.086609,0 -7.086609,7.086609 0,7.086609l76.181122,0c5.314941,0 5.314941,5.314972 0,5.314957l-70.86615,0c-7.086639,0 -7.086639,7.086624 0,7.086624l70.86615,0c5.314941,0 5.314941,5.314941 0,5.314941l-85.039398,1.771667c-14.173218,0 -14.173218,-17.716537 -24.803131,-17.716537l-162.992126,3.543304z"/>
   <path transform="rotate(90, 301.729, 241.125)" fill="#99ca3c" fill-rule="evenodd" stroke="black" stroke-width="0" d="m432.608276,249.984253c14.173218,0 14.173218,-17.716537 0,-17.716537l-166.535461,3.543304c-10.629913,0 -14.173218,-10.629913 -28.346436,-17.716522c-21.259857,-10.629929 -62.007874,1.771637 -70.86615,10.629913c-8.858261,8.858276 -8.858261,15.94487 0,24.803146c8.858276,8.858276 49.606293,21.259857 70.86615,10.629913c14.173218,-7.086609 17.716522,-17.716522 28.346436,-17.716522l166.535461,3.543304z" id="path13955"/>
  </g>
 </g>
</svg>